{
  "asset": {
    "generator": "Cesium-WebGPU-Test (Batch 142, derived from BoxUnlit.gltf)",
    "version": "2.0"
  },
  "extensionsUsed": ["KHR_materials_unlit", "KHR_lights_punctual"],
  "extensionsRequired": ["KHR_materials_unlit"],
  "extensions": {
    "KHR_lights_punctual": {
      "lights": [
        {
          "type": "directional",
          "name": "TestDirectional",
          "color": [1.0, 0.95, 0.85],
          "intensity": 5.0
        },
        {
          "type": "point",
          "name": "TestPoint",
          "color": [1.0, 0.4, 0.2],
          "intensity": 100.0,
          "range": 25.0
        },
        {
          "type": "spot",
          "name": "TestSpot",
          "color": [0.3, 0.6, 1.0],
          "intensity": 50.0,
          "range": 15.0,
          "spot": {
            "innerConeAngle": 0.2,
            "outerConeAngle": 0.5
          }
        }
      ]
    }
  },
  "scene": 0,
  "scenes": [{ "nodes": [0] }],
  "nodes": [
    {
      "children": [1, 2, 3, 4, 5],
      "matrix": [1.0, 0.0, 0.0, 0.0, 0.0, 0.0, -1.0, 0.0, 0.0, 1.0, 0.0, 0.0, 0.0, 0.0, 0.0, 1.0]
    },
    { "mesh": 0 },
    {
      "name": "DirLightNode",
      "rotation": [0, 0, 0, 1],
      "extensions": { "KHR_lights_punctual": { "light": 0 } }
    },
    {
      "name": "PointLightNode",
      "translation": [3.0, 4.0, 5.0],
      "extensions": { "KHR_lights_punctual": { "light": 1 } }
    },
    {
      "name": "SpotLightNode",
      "translation": [-2.0, 1.5, 0.0],
      "rotation": [0.7071, 0, 0, 0.7071],
      "extensions": { "KHR_lights_punctual": { "light": 2 } }
    },
    {
      "name": "SecondPointLightInstance",
      "translation": [-5.0, 0.0, 3.0],
      "extensions": { "KHR_lights_punctual": { "light": 1 } }
    }
  ],
  "meshes": [
    {
      "primitives": [
        {
          "attributes": { "NORMAL": 1, "POSITION": 2 },
          "indices": 0,
          "mode": 4,
          "material": 0
        }
      ],
      "name": "Mesh"
    }
  ],
  "materials": [
    {
      "pbrMetallicRoughness": {
        "baseColorFactor": [0.0, 1.0, 0.0, 1.0],
        "metallicFactor": 1.0
      },
      "name": "Unlit Green",
      "extensions": { "KHR_materials_unlit": {} }
    }
  ],
  "accessors": [
    {
      "bufferView": 0,
      "byteOffset": 0,
      "componentType": 5123,
      "count": 36,
      "max": [23],
      "min": [0],
      "type": "SCALAR"
    },
    {
      "bufferView": 1,
      "byteOffset": 0,
      "componentType": 5126,
      "count": 24,
      "max": [1.0, 1.0, 1.0],
      "min": [-1.0, -1.0, -1.0],
      "type": "VEC3"
    },
    {
      "bufferView": 1,
      "byteOffset": 288,
      "componentType": 5126,
      "count": 24,
      "max": [0.5, 0.5, 0.5],
      "min": [-0.5, -0.5, -0.5],
      "type": "VEC3"
    }
  ],
  "bufferViews": [
    { "buffer": 0, "byteOffset": 576, "byteLength": 72, "target": 34963 },
    { "buffer": 0, "byteOffset": 0, "byteLength": 576, "byteStride": 12, "target": 34962 }
  ],
  "buffers": [
    {
      "byteLength": 648,
      "uri": "data:application/octet-stream;base64,"
    }
  ]
}
