{
  "asset": {
    "version": "2.0",
    "generator": "cesium-webgpu METADATA-TABLE-SOURCES test-asset generator"
  },
  "extensionsUsed": [
    "EXT_mesh_features",
    "EXT_structural_metadata"
  ],
  "extensions": {
    "EXT_structural_metadata": {
      "schema": {
        "id": "TestSchema",
        "classes": {
          "region": {
            "properties": {
              "intensity": {
                "type": "SCALAR",
                "componentType": "FLOAT32"
              }
            }
          }
        }
      },
      "propertyTables": [
        {
          "name": "regions",
          "class": "region",
          "count": 4,
          "properties": {
            "intensity": {
              "values": 4
            }
          }
        }
      ]
    }
  },
  "scene": 0,
  "scenes": [
    {
      "nodes": [
        0
      ]
    }
  ],
  "nodes": [
    {
      "mesh": 0
    }
  ],
  "meshes": [
    {
      "primitives": [
        {
          "attributes": {
            "POSITION": 0,
            "NORMAL": 1,
            "TEXCOORD_0": 2
          },
          "indices": 3,
          "material": 0,
          "extensions": {
            "EXT_mesh_features": {
              "featureIds": [
                {
                  "featureCount": 4,
                  "propertyTable": 0
                }
              ]
            }
          }
        }
      ]
    }
  ],
  "materials": [
    {
      "pbrMetallicRoughness": {
        "baseColorFactor": [
          1.0,
          1.0,
          1.0,
          1.0
        ],
        "metallicFactor": 0.0,
        "roughnessFactor": 1.0
      },
      "doubleSided": true
    }
  ],
  "accessors": [
    {
      "bufferView": 0,
      "componentType": 5126,
      "count": 4,
      "type": "VEC3",
      "min": [
        -5.0,
        0.0,
        -5.0
      ],
      "max": [
        5.0,
        0.0,
        5.0
      ]
    },
    {
      "bufferView": 1,
      "componentType": 5126,
      "count": 4,
      "type": "VEC3"
    },
    {
      "bufferView": 2,
      "componentType": 5126,
      "count": 4,
      "type": "VEC2"
    },
    {
      "bufferView": 3,
      "componentType": 5123,
      "count": 6,
      "type": "SCALAR"
    }
  ],
  "bufferViews": [
    {
      "buffer": 0,
      "byteOffset": 0,
      "byteLength": 48,
      "target": 34962
    },
    {
      "buffer": 0,
      "byteOffset": 48,
      "byteLength": 48,
      "target": 34962
    },
    {
      "buffer": 0,
      "byteOffset": 96,
      "byteLength": 32,
      "target": 34962
    },
    {
      "buffer": 0,
      "byteOffset": 128,
      "byteLength": 12,
      "target": 34963
    },
    {
      "buffer": 0,
      "byteOffset": 140,
      "byteLength": 16
    }
  ],
  "buffers": [
    {
      "byteLength": 156,
      "uri": "data:application/octet-stream;base64,"
    }
  ]
}