{
  "asset": {
    "version": "2.0",
    "generator": "cesium-webgpu PARITY-METADATA-TABLE-INSTANCE-SOURCE test-asset generator"
  },
  "extensionsUsed": [
    "EXT_mesh_gpu_instancing",
    "EXT_instance_features",
    "EXT_structural_metadata"
  ],
  "extensions": {
    "EXT_structural_metadata": {
      "schema": {
        "id": "TestSchema",
        "classes": {
          "region": {
            "properties": {
              "intensity": {
                "type": "SCALAR",
                "componentType": "FLOAT32"
              }
            }
          }
        }
      },
      "propertyTables": [
        {
          "name": "regions",
          "class": "region",
          "count": 4,
          "properties": {
            "intensity": {
              "values": 5
            }
          }
        }
      ]
    }
  },
  "scene": 0,
  "scenes": [
    {
      "nodes": [
        0
      ]
    }
  ],
  "nodes": [
    {
      "mesh": 0,
      "extensions": {
        "EXT_mesh_gpu_instancing": {
          "attributes": {
            "TRANSLATION": 4
          }
        },
        "EXT_instance_features": {
          "featureIds": [
            {
              "featureCount": 4,
              "propertyTable": 0
            }
          ]
        }
      }
    }
  ],
  "meshes": [
    {
      "primitives": [
        {
          "attributes": {
            "POSITION": 0,
            "NORMAL": 1,
            "TEXCOORD_0": 2
          },
          "indices": 3,
          "material": 0
        }
      ]
    }
  ],
  "materials": [
    {
      "pbrMetallicRoughness": {
        "baseColorFactor": [
          1,
          1,
          1,
          1
        ],
        "metallicFactor": 0,
        "roughnessFactor": 1
      },
      "doubleSided": true
    }
  ],
  "accessors": [
    {
      "bufferView": 0,
      "componentType": 5126,
      "count": 4,
      "type": "VEC3",
      "min": [
        -1.5,
        0,
        -1.5
      ],
      "max": [
        1.5,
        0,
        1.5
      ]
    },
    {
      "bufferView": 1,
      "componentType": 5126,
      "count": 4,
      "type": "VEC3"
    },
    {
      "bufferView": 2,
      "componentType": 5126,
      "count": 4,
      "type": "VEC2"
    },
    {
      "bufferView": 3,
      "componentType": 5123,
      "count": 6,
      "type": "SCALAR"
    },
    {
      "bufferView": 4,
      "componentType": 5126,
      "count": 4,
      "type": "VEC3",
      "min": [
        -2.5,
        0,
        -2.5
      ],
      "max": [
        2.5,
        0,
        2.5
      ]
    }
  ],
  "bufferViews": [
    {
      "buffer": 0,
      "byteOffset": 0,
      "byteLength": 48,
      "target": 34962
    },
    {
      "buffer": 0,
      "byteOffset": 48,
      "byteLength": 48,
      "target": 34962
    },
    {
      "buffer": 0,
      "byteOffset": 96,
      "byteLength": 32,
      "target": 34962
    },
    {
      "buffer": 0,
      "byteOffset": 128,
      "byteLength": 12,
      "target": 34963
    },
    {
      "buffer": 0,
      "byteOffset": 140,
      "byteLength": 48
    },
    {
      "buffer": 0,
      "byteOffset": 188,
      "byteLength": 16
    }
  ],
  "buffers": [
    {
      "byteLength": 204,
      "uri": "data:application/octet-stream;base64,"
    }
  ]
}